<svg width="150" height="50" viewBox="0 0 150 50" fill="none" xmlns="http://www.w3.org/2000/svg">
<rect width="150" height="50" fill="white"/>
<path d="M28.371 13.735V18.883H22.167V37H15.699V18.883H9.561V13.735H28.371ZM35.681 16.771C34.537 16.771 33.613 16.463 32.909 15.847C32.227 15.209 31.886 14.417 31.886 13.471C31.886 12.503 32.227 11.7 32.909 11.062C33.613 10.424 34.537 10.105 35.681 10.105C36.803 10.105 37.705 10.424 38.387 11.062C39.091 11.7 39.443 12.503 39.443 13.471C39.443 14.417 39.091 15.209 38.387 15.847C37.705 16.463 36.803 16.771 35.681 16.771ZM38.882 18.487V37H32.414V18.487H38.882ZM55.1384 31.489V37H52.3334C47.6034 37 45.2384 34.657 45.2384 29.971V23.866H42.9614V18.487H45.2384V13.999H51.7394V18.487H55.1054V23.866H51.7394V30.07C51.7394 30.576 51.8494 30.939 52.0694 31.159C52.3114 31.379 52.7074 31.489 53.2574 31.489H55.1384ZM58.699 27.727C58.699 25.813 59.04 24.141 59.722 22.711C60.426 21.281 61.372 20.181 62.56 19.411C63.77 18.641 65.112 18.256 66.586 18.256C67.862 18.256 68.962 18.509 69.886 19.015C70.81 19.521 71.525 20.203 72.031 21.061V18.487H78.499V37H72.031V34.426C71.525 35.284 70.799 35.966 69.853 36.472C68.929 36.978 67.84 37.231 66.586 37.231C65.112 37.231 63.77 36.846 62.56 36.076C61.372 35.306 60.426 34.206 59.722 32.776C59.04 31.324 58.699 29.641 58.699 27.727ZM72.031 27.727C72.031 26.539 71.701 25.604 71.041 24.922C70.403 24.24 69.611 23.899 68.665 23.899C67.697 23.899 66.894 24.24 66.256 24.922C65.618 25.582 65.299 26.517 65.299 27.727C65.299 28.915 65.618 29.861 66.256 30.565C66.894 31.247 67.697 31.588 68.665 31.588C69.611 31.588 70.403 31.247 71.041 30.565C71.701 29.883 72.031 28.937 72.031 27.727ZM95.9457 18.322C98.0797 18.322 99.7737 19.037 101.028 20.467C102.282 21.875 102.909 23.789 102.909 26.209V37H96.4407V27.067C96.4407 26.011 96.1657 25.186 95.6157 24.592C95.0657 23.976 94.3287 23.668 93.4047 23.668C92.4367 23.668 91.6777 23.976 91.1277 24.592C90.5777 25.186 90.3027 26.011 90.3027 27.067V37H83.8347V18.487H90.3027V21.127C90.8747 20.291 91.6447 19.62 92.6127 19.114C93.5807 18.586 94.6917 18.322 95.9457 18.322ZM111.375 16.771C110.231 16.771 109.307 16.463 108.603 15.847C107.921 15.209 107.58 14.417 107.58 13.471C107.58 12.503 107.921 11.7 108.603 11.062C109.307 10.424 110.231 10.105 111.375 10.105C112.497 10.105 113.399 10.424 114.081 11.062C114.785 11.7 115.137 12.503 115.137 13.471C115.137 14.417 114.785 15.209 114.081 15.847C113.399 16.463 112.497 16.771 111.375 16.771ZM114.576 18.487V37H108.108V18.487H114.576ZM118.853 27.727C118.853 25.813 119.194 24.141 119.876 22.711C120.58 21.281 121.526 20.181 122.714 19.411C123.924 18.641 125.266 18.256 126.74 18.256C128.016 18.256 129.116 18.509 130.04 19.015C130.964 19.521 131.679 20.203 132.185 21.061V18.487H138.653V37H132.185V34.426C131.679 35.284 130.953 35.966 130.007 36.472C129.083 36.978 127.994 37.231 126.74 37.231C125.266 37.231 123.924 36.846 122.714 36.076C121.526 35.306 120.58 34.206 119.876 32.776C119.194 31.324 118.853 29.641 118.853 27.727ZM132.185 27.727C132.185 26.539 131.855 25.604 131.195 24.922C130.557 24.24 129.765 23.899 128.819 23.899C127.851 23.899 127.048 24.24 126.41 24.922C125.772 25.582 125.453 26.517 125.453 27.727C125.453 28.915 125.772 29.861 126.41 30.565C127.048 31.247 127.851 31.588 128.819 31.588C129.765 31.588 130.557 31.247 131.195 30.565C131.855 29.883 132.185 28.937 132.185 27.727Z" fill="black"/>
</svg>
